<?xml version="1.0" encoding="UTF-8"?>
<svg version="1.1" xmlns="http://www.w3.org/2000/svg" width="1200" height="900">
<path d="M0 0 C396 0 792 0 1200 0 C1200 297 1200 594 1200 900 C804 900 408 900 0 900 C0 603 0 306 0 0 Z " fill="#EFEEEA" transform="translate(0,0)"/>
<path d="M0 0 C1.18916016 -0.01160156 2.37832031 -0.02320313 3.60351562 -0.03515625 C11.18450874 -0.01017769 17.76200281 0.93771196 24.9375 3.375 C25.62465088 3.60461426 26.31180176 3.83422852 27.01977539 4.07080078 C34.96067315 6.86404009 41.797551 10.18625308 48.5703125 15.25 C50.88499928 16.65337038 50.88499928 16.65337038 53.34375 15.80078125 C56.3835138 14.12982675 59.35047477 12.36802354 62.3125 10.5625 C80.46307072 -0.12530596 103.84210991 -3.17688739 124.375 1.875 C132.74957471 4.31470048 140.35814099 8.10335777 147.9375 12.375 C148.77796875 12.83519531 149.6184375 13.29539062 150.484375 13.76953125 C168.60867309 24.71687188 180.91238559 44.33203769 186.07421875 64.5078125 C190.76160263 86.91840152 186.18324522 109.7703683 174.9375 129.375 C172.53555872 133.00685097 169.90704348 136.19648865 166.9375 139.375 C166.20015625 140.20257813 165.4628125 141.03015625 164.703125 141.8828125 C151.65725444 155.82398791 132.04008337 166.39029424 112.74951172 167.50097656 C92.17591914 168.15436905 76.48007448 164.90878467 58.4453125 154.70703125 C57.61773437 154.26746094 56.79015625 153.82789063 55.9375 153.375 C55.13828125 152.91480469 54.3390625 152.45460938 53.515625 151.98046875 C50.80400817 151.06966619 50.80400817 151.06966619 47.9140625 152.71875 C46.80804688 153.4303125 45.70203125 154.141875 44.5625 154.875 C24.95185222 166.89207072 1.64607949 171.30813584 -21 165.875 C-43.9953621 158.6106142 -63.12095276 143.8667838 -74.59765625 122.51953125 C-83.37800869 103.91162836 -86.9764866 80.65941566 -81.2265625 60.5078125 C-71.5035593 34.34053543 -54.79494819 16.47431134 -29.5859375 4.6640625 C-19.68095956 1.04029008 -10.51963454 -0.10296543 0 0 Z " fill="#F79E1A" transform="translate(206.0625,365.625)"/>
<path d="M0 0 C1.18916016 -0.01160156 2.37832031 -0.02320313 3.60351562 -0.03515625 C11.18450874 -0.01017769 17.76200281 0.93771196 24.9375 3.375 C25.62465088 3.60461426 26.31180176 3.83422852 27.01977539 4.07080078 C35.37590027 7.01009772 44.1597123 10.55540266 50.9375 16.375 C50.9375 17.365 50.9375 18.355 50.9375 19.375 C49.30030335 20.77343881 47.65865608 22.16697115 45.99609375 23.53515625 C35.83778869 32.61402092 28.08404002 46.49468486 23.9375 59.375 C23.63972656 60.27605469 23.34195313 61.17710937 23.03515625 62.10546875 C17.14854379 83.07483018 21.05365067 105.31329057 30.9375 124.375 C35.93998429 132.81669223 41.69221947 139.51722349 48.84765625 146.1328125 C50.9375 148.375 50.9375 148.375 50.9375 151.375 C28.83578715 164.79268084 5.00320525 172.11356092 -21 165.875 C-43.9953621 158.6106142 -63.12095276 143.8667838 -74.59765625 122.51953125 C-83.37800869 103.91162836 -86.9764866 80.65941566 -81.2265625 60.5078125 C-71.5035593 34.34053543 -54.79494819 16.47431134 -29.5859375 4.6640625 C-19.68095956 1.04029008 -10.51963454 -0.10296543 0 0 Z " fill="#E9001B" transform="translate(206.0625,365.625)"/>
<path d="M0 0 C10.40802569 2.83855246 17.94833818 15.73603325 22.98828125 24.4296875 C32.90528738 43.49921962 36.35063278 65.45209313 31.10546875 86.53125 C25.48963559 104.1526629 16.0552236 121.95674692 0 132 C-0.40089844 131.53851562 -0.80179687 131.07703125 -1.21484375 130.6015625 C-1.78332031 129.94929687 -2.35179687 129.29703125 -2.9375 128.625 C-3.576875 127.88765625 -4.21625 127.1503125 -4.875 126.390625 C-6.2804662 124.80947552 -7.7180806 123.25627367 -9.1875 121.734375 C-25.57256965 104.55280891 -31.7566641 82.87432248 -31.3046875 59.546875 C-30.57352252 41.84180577 -22.74391951 25.84771848 -12 12 C-11.57074219 11.43023437 -11.14148438 10.86046875 -10.69921875 10.2734375 C-7.58320034 6.31497763 -3.889593 3.16099489 0 0 Z " fill="#FE5F01" transform="translate(257,384)"/>
<path d="M0 0 C3.96 0 7.92 0 12 0 C12 25.74 12 51.48 12 78 C8.04 78 4.08 78 0 78 C-0.33 76.68 -0.66 75.36 -1 74 C-1.86625 74.61875 -2.7325 75.2375 -3.625 75.875 C-10.36076623 80.11603799 -16.50898352 80.95784571 -24.26171875 79.60546875 C-31.46873265 77.65592747 -37.36729131 73.07598425 -41.41796875 66.8046875 C-45.76817884 58.29272407 -46.67778473 48.2773702 -44.19921875 39.00390625 C-40.69863287 31.29299372 -34.4798392 24.99941508 -26.5 22 C-18.02046999 19.74762484 -11.65660929 20.78732742 -4 25 C-3.01 25.66 -2.02 26.32 -1 27 C-0.67 18.09 -0.34 9.18 0 0 Z " fill="#040404" transform="translate(1048,399)"/>
<path d="M0 0 C1.92362713 1.1982594 3.34762425 2.50217457 4.875 4.16796875 C5.205 2.51796875 5.535 0.86796875 5.875 -0.83203125 C9.835 -0.83203125 13.795 -0.83203125 17.875 -0.83203125 C17.875 17.31796875 17.875 35.46796875 17.875 54.16796875 C13.915 54.16796875 9.955 54.16796875 5.875 54.16796875 C5.545 52.51796875 5.215 50.86796875 4.875 49.16796875 C4.00875 49.95171875 3.1425 50.73546875 2.25 51.54296875 C-3.02922159 55.86678597 -8.40023479 56.75713225 -15.1171875 56.6015625 C-22.75088905 55.50111981 -29.26781202 51.75909432 -34.1875 45.85546875 C-39.67308664 37.82778098 -41.2475018 29.82905163 -40.125 20.16796875 C-38.11065247 12.17886158 -34.35365773 5.96024494 -27.45703125 1.40625 C-17.91648222 -3.88856958 -9.90540155 -4.75240773 0 0 Z " fill="#060606" transform="translate(930.125,422.83203125)"/>
<path d="M0 0 C1.92362713 1.1982594 3.34762425 2.50217457 4.875 4.16796875 C5.205 2.51796875 5.535 0.86796875 5.875 -0.83203125 C9.835 -0.83203125 13.795 -0.83203125 17.875 -0.83203125 C17.875 17.31796875 17.875 35.46796875 17.875 54.16796875 C13.915 54.16796875 9.955 54.16796875 5.875 54.16796875 C5.545 52.51796875 5.215 50.86796875 4.875 49.16796875 C4.00875 49.95171875 3.1425 50.73546875 2.25 51.54296875 C-3.10137327 55.92588004 -8.45240555 56.68028663 -15.2421875 56.55078125 C-22.40009899 55.60027268 -28.60296969 51.72360599 -33.125 46.16796875 C-39.49331549 36.76971398 -40.40938125 28.44119352 -39.125 17.16796875 C-36.24875479 7.67954359 -30.09331103 2.98022028 -21.8125 -1.70703125 C-14.02906505 -4.08163852 -7.30564346 -3.50509732 0 0 Z " fill="#040404" transform="translate(588.125,422.83203125)"/>
<path d="M0 0 C4.36825917 2.05125478 7.48824935 4.68697583 10.6796875 8.27734375 C11.19917969 7.79523438 11.71867187 7.313125 12.25390625 6.81640625 C12.95128906 6.18476563 13.64867187 5.553125 14.3671875 4.90234375 C15.05167969 4.27585937 15.73617187 3.649375 16.44140625 3.00390625 C22.05521618 -1.3264672 27.84507657 -1.45460923 34.6796875 -0.72265625 C42.99918593 1.34839286 46.82539384 4.6971478 51.2902832 11.86181641 C53.1277722 16.37885579 53.05681937 20.22548355 52.97265625 25.05078125 C52.96841141 25.97452545 52.96416656 26.89826965 52.95979309 27.8500061 C52.94307423 30.78442205 52.90543466 33.71813731 52.8671875 36.65234375 C52.85213188 38.64842754 52.83844501 40.64452216 52.82617188 42.640625 C52.79319295 47.51979897 52.74145764 52.39845278 52.6796875 57.27734375 C48.3896875 57.27734375 44.0996875 57.27734375 39.6796875 57.27734375 C39.6703418 56.12210205 39.66099609 54.96686035 39.65136719 53.77661133 C39.6114214 49.48048693 39.54565004 45.18507519 39.47216797 40.8894043 C39.44398491 39.03207572 39.4227571 37.1746278 39.40869141 35.31713867 C39.38722466 32.64309714 39.34055681 29.9704864 39.2890625 27.296875 C39.28783386 26.46960403 39.28660522 25.64233307 39.28533936 24.78999329 C39.15703091 19.71175075 38.516822 16.952428 34.6796875 13.27734375 C30.29254631 11.08377316 24.33600416 11.89777118 19.6796875 12.96484375 C16.92906083 14.7699425 16.63755402 16.12157593 15.6796875 19.27734375 C15.35884061 22.20916737 15.30789871 25.13063024 15.265625 28.078125 C15.24625885 28.91449997 15.2268927 29.75087494 15.2069397 30.6125946 C15.14738558 33.27157545 15.10085576 35.93060015 15.0546875 38.58984375 C15.01648544 40.39780484 14.97743241 42.20574817 14.9375 44.01367188 C14.84170405 48.43475073 14.75758419 52.85591476 14.6796875 57.27734375 C10.3896875 57.27734375 6.0996875 57.27734375 1.6796875 57.27734375 C1.6703418 56.12210205 1.66099609 54.96686035 1.65136719 53.77661133 C1.6114214 49.48048693 1.54565004 45.18507519 1.47216797 40.8894043 C1.44398491 39.03207572 1.4227571 37.1746278 1.40869141 35.31713867 C1.38722466 32.64309714 1.34055681 29.9704864 1.2890625 27.296875 C1.28783386 26.46960403 1.28660522 25.64233307 1.28533936 24.78999329 C1.15703091 19.71175075 0.516822 16.952428 -3.3203125 13.27734375 C-5.77002874 12.05248563 -7.46265711 12.11011567 -10.1953125 12.08984375 C-11.05898438 12.07566406 -11.92265625 12.06148438 -12.8125 12.046875 C-15.57877823 12.30109683 -17.04271723 12.69065081 -19.3203125 14.27734375 C-22.7942114 18.7300997 -22.78909049 22.66579625 -22.83203125 28.078125 C-22.84998245 28.91449997 -22.86793365 29.75087494 -22.88642883 30.6125946 C-22.94040759 33.27162709 -22.97438711 35.93048136 -23.0078125 38.58984375 C-23.04099661 40.39781119 -23.07548728 42.20575515 -23.11132812 44.01367188 C-23.19612674 48.43476699 -23.26299691 52.85581039 -23.3203125 57.27734375 C-27.6103125 57.27734375 -31.9003125 57.27734375 -36.3203125 57.27734375 C-36.3203125 38.46734375 -36.3203125 19.65734375 -36.3203125 0.27734375 C-32.0303125 0.27734375 -27.7403125 0.27734375 -23.3203125 0.27734375 C-22.9903125 1.92734375 -22.6603125 3.57734375 -22.3203125 5.27734375 C-21.5778125 4.65859375 -20.8353125 4.03984375 -20.0703125 3.40234375 C-13.96404924 -1.3161324 -7.49258913 -2.33355049 0 0 Z " fill="#0D0D0D" transform="translate(485.3203125,420.72265625)"/>
<path d="M0 0 C6.709824 3.92669371 10.86857618 10.6376093 13 18 C13 22.29 13 26.58 13 31 C-0.86 31 -14.72 31 -29 31 C-24.66137844 39.81292776 -24.66137844 39.81292776 -17 44 C-10.00770743 45.22423978 -5.10704797 43.55464758 0.96875 40.09375 C3 39 3 39 5 39 C6.2890625 40.6796875 6.2890625 40.6796875 7.625 42.875 C8.07101562 43.59429687 8.51703125 44.31359375 8.9765625 45.0546875 C10 47 10 47 10 49 C8.10807525 49.98669759 6.21128022 50.9640602 4.3125 51.9375 C2.72888672 52.75541016 2.72888672 52.75541016 1.11328125 53.58984375 C-6.69574535 57.12693108 -16.16943498 57.33506686 -24.25 54.5 C-31.41534744 51.19380271 -36.40416251 46.21163565 -39.5 38.9375 C-42.33989434 29.70144722 -42.52769013 20.30722198 -38.5 11.4375 C-35.51702461 6.21553838 -32.22724128 2.92110542 -27 0 C-25.3603125 -0.928125 -25.3603125 -0.928125 -23.6875 -1.875 C-15.69630236 -4.3129925 -7.50423432 -3.71651832 0 0 Z " fill="#050505" transform="translate(770,423)"/>
<path d="M0 0 C0.495 0.99 0.495 0.99 1 2 C0.00390625 3.9453125 0.00390625 3.9453125 -1.4375 6.125 C-1.91058594 6.84945313 -2.38367188 7.57390625 -2.87109375 8.3203125 C-3.24363281 8.87460937 -3.61617187 9.42890625 -4 10 C-7.21044399 9.53017893 -10.15976693 8.9477685 -13.25 7.9375 C-18.50546688 6.62363328 -24.43062753 5.48033696 -29.28515625 8.3515625 C-31.28758973 9.91701147 -31.28758973 9.91701147 -31.25 12.6875 C-31.12625 13.8321875 -31.12625 13.8321875 -31 15 C-27.3611083 16.68666578 -23.87944786 17.41426654 -19.92041016 17.98779297 C-11.43439497 19.22181879 -4.96937336 20.65849789 1 27.1875 C2.9265049 32.60579504 2.71305984 37.90043492 0.875 43.3125 C-3.14204545 49.07026514 -7.39748175 51.74067091 -14.1015625 53.4921875 C-24.70409102 55.34977336 -36.27113224 54.71470835 -45.3359375 48.36328125 C-45.88507812 47.91339844 -46.43421875 47.46351563 -47 47 C-45.6302836 43.00499382 -43.74277578 40.19990508 -41 37 C-40.45730469 37.27714844 -39.91460938 37.55429687 -39.35546875 37.83984375 C-38.64003906 38.20207031 -37.92460938 38.56429687 -37.1875 38.9375 C-36.47980469 39.29714844 -35.77210938 39.65679687 -35.04296875 40.02734375 C-31.26955353 41.82386457 -28.26351145 42.16169881 -24.125 42.1875 C-23.09632813 42.20167969 -22.06765625 42.21585937 -21.0078125 42.23046875 C-16.79122372 41.90737948 -14.00286641 41.00286641 -11 38 C-10.83312552 35.41645782 -10.83312552 35.41645782 -11 33 C-12.29035156 32.73445313 -13.58070313 32.46890625 -14.91015625 32.1953125 C-16.6276325 31.83867809 -18.34507884 31.48189961 -20.0625 31.125 C-20.91005859 30.95097656 -21.75761719 30.77695312 -22.63085938 30.59765625 C-39.20677862 27.14167309 -39.20677862 27.14167309 -43.8125 20.3125 C-45.33822212 16.05653831 -45.71556749 12.47028681 -45 8 C-42.23364633 2.46729266 -38.05152502 -1.75224587 -32.27734375 -4.11328125 C-21.19859002 -7.11075097 -9.99845732 -5.41788328 0 0 Z " fill="#070707" transform="translate(665,425)"/>
<path d="M0 0 C3.96 0 7.92 0 12 0 C12 5.61 12 11.22 12 17 C18.6 17 25.2 17 32 17 C32 20.63 32 24.26 32 28 C25.4 28 18.8 28 12 28 C12.07410043 32.05763739 12.15701087 36.11360639 12.26245117 40.17041016 C12.29564193 41.54952667 12.32369217 42.92877711 12.34643555 44.30810547 C12.38008642 46.29422306 12.43394729 48.27996559 12.48828125 50.265625 C12.51446533 51.45961914 12.54064941 52.65361328 12.56762695 53.88378906 C13.03224451 57.23239351 13.54995365 58.69366066 16 61 C21.50879571 61.55087957 25.78577694 60.73807435 31 59 C31.50367757 60.45706726 32.00282556 61.91570096 32.5 63.375 C32.7784375 64.18710937 33.056875 64.99921875 33.34375 65.8359375 C34 68 34 68 34 70 C25.75704257 73.92855844 18.51582944 75.67732282 9.625 72.8125 C5.20475842 70.91429142 3.05043741 68.09122265 0.91064453 63.83129883 C-0.25203723 60.21638718 -0.24927582 56.82719673 -0.1953125 53.07421875 C-0.1924826 52.32662796 -0.18965271 51.57903717 -0.18673706 50.80879211 C-0.17559469 48.4348612 -0.15050162 46.06131575 -0.125 43.6875 C-0.11496249 42.0722711 -0.10583799 40.45703624 -0.09765625 38.84179688 C-0.07567489 34.89438406 -0.04118657 30.94725726 0 27 C-3.63 27 -7.26 27 -11 27 C-11 23.7 -11 20.4 -11 17 C-7.37 17 -3.74 17 0 17 C0 11.39 0 5.78 0 0 Z " fill="#040404" transform="translate(687,405)"/>
<path d="M0 0 C0.9590625 0.6496875 0.9590625 0.6496875 1.9375 1.3125 C0.60261872 4.90641114 -1.02272723 8.06740696 -3.0625 11.3125 C-5.29090671 10.81729851 -7.2451187 10.23091777 -9.3359375 9.296875 C-15.26413822 7.15660769 -21.84005847 7.3203386 -27.5625 9.875 C-32.33880264 14.53189507 -34.28640646 18.14285039 -34.625 24.75 C-34.41379458 30.2337979 -32.8736954 34.32250778 -29.0625 38.3125 C-23.69365944 42.26178272 -18.49644206 42.00216272 -12.0625 41.3125 C-8.6774123 39.87250293 -8.6774123 39.87250293 -6.0625 38.3125 C-3.9375 38.1875 -3.9375 38.1875 -2.0625 39.3125 C1.9375 44.84353448 1.9375 44.84353448 1.9375 48.3125 C0.54672699 49.13363177 -0.85038893 49.94402495 -2.25 50.75 C-3.02730469 51.20246094 -3.80460938 51.65492188 -4.60546875 52.12109375 C-11.3770102 55.40459159 -20.42147047 55.48511933 -27.62890625 53.6640625 C-36.0621734 50.23208943 -42.09120277 44.41394635 -46.0625 36.3125 C-46.3925 35.6525 -46.7225 34.9925 -47.0625 34.3125 C-47.35373419 31.27804055 -47.34048167 28.23431768 -47.375 25.1875 C-47.40400391 24.35734375 -47.43300781 23.5271875 -47.46289062 22.671875 C-47.53794773 15.30473108 -45.54917209 10.20241621 -40.75 4.625 C-28.43935912 -5.96787704 -14.57700661 -8.03222813 0 0 Z " fill="#060606" transform="translate(882.0625,424.6875)"/>
<path d="M0 0 C1.29550781 -0.02126953 1.29550781 -0.02126953 2.6171875 -0.04296875 C5.125 0.1875 5.125 0.1875 9.125 2.1875 C7.805 5.8175 6.485 9.4475 5.125 13.1875 C3.80435547 13.08308594 3.80435547 13.08308594 2.45703125 12.9765625 C1.29558594 12.92242187 0.13414062 12.86828125 -1.0625 12.8125 C-2.78533203 12.70808594 -2.78533203 12.70808594 -4.54296875 12.6015625 C-8.28695579 13.2599424 -9.52315335 14.35465715 -11.83232117 17.30874634 C-13.77332414 20.80614778 -13.60077496 24.38636411 -13.58203125 28.3046875 C-13.59715256 29.16184357 -13.61227386 30.01899963 -13.62785339 30.90213013 C-13.67061985 33.62252333 -13.67955742 36.3418046 -13.6875 39.0625 C-13.71065299 40.91409183 -13.73602 42.76565739 -13.76367188 44.6171875 C-13.82641474 49.14072281 -13.85883631 53.66356816 -13.875 58.1875 C-18.165 58.1875 -22.455 58.1875 -26.875 58.1875 C-26.875 39.3775 -26.875 20.5675 -26.875 1.1875 C-22.585 1.1875 -18.295 1.1875 -13.875 1.1875 C-13.545 2.8375 -13.215 4.4875 -12.875 6.1875 C-11.92625 5.383125 -10.9775 4.57875 -10 3.75 C-6.56324011 0.83622531 -4.54783095 0.03373762 0 0 Z " fill="#101010" transform="translate(821.875,419.8125)"/>
<path d="M0 0 C4.03558473 2.85443798 6.628719 6.29208031 8.5625 10.8125 C9.54978556 17.562778 8.5505497 23.2420951 4.5625 28.8125 C-0.49905252 33.62714752 -4.86760206 34.237961 -11.64453125 34.1484375 C-15.98428271 33.62645341 -18.5500982 32.04513462 -21.4375 28.8125 C-24.7866581 24.22734308 -26.11931982 19.7142901 -25.81640625 14.046875 C-24.90005332 8.64322677 -22.54587251 4.38180436 -18.375 0.8125 C-12.75374518 -2.7734729 -6.06508261 -2.09521036 0 0 Z " fill="#EDECE9" transform="translate(1040.4375,433.1875)"/>
<path d="M0 0 C4.34385372 2.27580162 6.93778891 4.85832652 8.859375 9.31640625 C9.8245875 16.81956755 9.86956534 23.4256258 5.44140625 29.765625 C1.59959175 33.53155181 -1.73748956 34.74703285 -7.078125 34.75390625 C-12.26623188 34.5949569 -15.30762779 34.05591572 -19.140625 30.31640625 C-23.62272092 25.23669754 -24.89875042 20.6772828 -24.5625 13.93359375 C-23.71808473 8.69509162 -21.47004733 5.51921693 -17.515625 1.94140625 C-12.31802418 -1.61484694 -6.02809733 -1.92503108 0 0 Z " fill="#EEEDEA" transform="translate(585.140625,432.68359375)"/>
<path d="M0 0 C5.67458978 1.92721917 9.32050871 5.64101742 12 11 C12.50178565 17.44601568 12.96229274 23.58486659 9 29 C4.78239923 33.21760077 1.16931443 35.13791555 -4.8125 35.3125 C-9.6661481 35.25598008 -12.28169946 34.27564572 -16 31 C-20.96347471 25.49993343 -21.35080412 21.15676459 -21.28125 13.94921875 C-20.77540299 8.64485075 -18.22984831 6.08343779 -14.375 2.6875 C-9.68678983 -0.6435967 -5.63115856 -0.46854016 0 0 Z " fill="#EFEEEB" transform="translate(924,432)"/>
<path d="M0 0 C0.76183594 -0.00257813 1.52367187 -0.00515625 2.30859375 -0.0078125 C4.51565859 0.12223985 6.44219276 0.51643801 8.5625 1.125 C8.25356068 2.7506807 7.9402305 4.37552748 7.625 6 C7.45097656 6.90492188 7.27695312 7.80984375 7.09765625 8.7421875 C6.5625 11.125 6.5625 11.125 5.5625 13.125 C4.68207031 13.06699219 3.80164063 13.00898438 2.89453125 12.94921875 C-3.44185268 12.46261496 -3.44185268 12.46261496 -9.37890625 14.16796875 C-13.67199333 18.53794695 -13.63266896 22.61783136 -13.75390625 28.4140625 C-13.77468735 29.23248627 -13.79546844 30.05091003 -13.81687927 30.89413452 C-13.88234812 33.51266966 -13.94124726 36.13130639 -14 38.75 C-14.04318776 40.52344807 -14.08680214 42.29688581 -14.13085938 44.0703125 C-14.23802676 48.42177046 -14.33930169 52.77333077 -14.4375 57.125 C-18.3975 57.125 -22.3575 57.125 -26.4375 57.125 C-26.4375 38.975 -26.4375 20.825 -26.4375 2.125 C-22.4775 2.125 -18.5175 2.125 -14.4375 2.125 C-14.1075 3.445 -13.7775 4.765 -13.4375 6.125 C-12.509375 5.320625 -11.58125 4.51625 -10.625 3.6875 C-7.2366014 0.75088788 -4.45363303 -0.01502068 0 0 Z " fill="#030303" transform="translate(990.4375,419.875)"/>
<path d="M0 0 C3.77923247 1.32959613 6.42548448 3.27722241 8.9375 6.4375 C10 9 10 9 10 14 C0.43 14 -9.14 14 -19 14 C-16.74108322 7.22324967 -16.74108322 7.22324967 -14 4.1875 C-13.484375 3.60355469 -12.96875 3.01960938 -12.4375 2.41796875 C-8.97243898 -1.00001264 -4.56802549 -0.53829433 0 0 Z " fill="#F0EFEC" transform="translate(760,431)"/>
<path d="M0 0 C6.61423598 -0.53993763 10.60560277 0.00814605 16 4 C18.99676883 7.77012852 19 8.94691482 19 14 C9.43 14 -0.14 14 -10 14 C-9.67 13.34 -9.34 12.68 -9 12 C-0.75 12 7.5 12 16 12 C15.16537965 7.28941438 15.16537965 7.28941438 14 4 C10.83321116 2.7289265 7.62266213 2.89734926 4.25 2.9375 C3.26515625 2.94652344 2.2803125 2.95554687 1.265625 2.96484375 C0.14414062 2.98224609 0.14414062 2.98224609 -1 3 C-0.67 2.01 -0.34 1.02 0 0 Z " fill="#B9BAB7" transform="translate(751,431)"/>
<path d="M0 0 C-0.556875 0.226875 -1.11375 0.45375 -1.6875 0.6875 C-5.63043806 2.92538376 -8.53434042 5.38810145 -9.8125 9.8125 C-9.874375 10.534375 -9.93625 11.25625 -10 12 C-10.66 11.34 -11.32 10.68 -12 10 C-11.9006627 6.32451981 -11.03000948 5.03385685 -8.5625 2.25 C-5.16726375 -0.73118305 -4.22932249 -1.26879675 0 0 Z " fill="#E6E6E4" transform="translate(474,433)"/>
<path d="M0 0 C0.99 0.33 1.98 0.66 3 1 C3.6875 3.0625 3.6875 3.0625 4 5 C2.02 5.99 2.02 5.99 0 7 C-0.93423645 3.98968256 -1.04449911 3.13349732 0 0 Z " fill="#9B9A98" transform="translate(1074,472)"/>
<path d="M0 0 C2.31 0 4.62 0 7 0 C6.67 0.99 6.34 1.98 6 3 C4.02 3.33 2.04 3.66 0 4 C0 2.68 0 1.36 0 0 Z " fill="#F4C075" transform="translate(387,491)"/>
<path d="M0 0 C1.32 0.33 2.64 0.66 4 1 C3.01 1 2.02 1 1 1 C0.7525 1.639375 0.505 2.27875 0.25 2.9375 C-1 5 -1 5 -3.125 5.75 C-4.053125 5.87375 -4.053125 5.87375 -5 6 C-3.35 4.02 -1.7 2.04 0 0 Z " fill="#E2E2E1" transform="translate(814,432)"/>
</svg>
